<?xml version="1.0" encoding="UTF-8"?>
<svg width="214px" height="171px" viewBox="0 0 214 171" version="1.1" xmlns="http://www.w3.org/2000/svg" xmlns:xlink="http://www.w3.org/1999/xlink">
    <!-- Generator: Sketch 57.1 (83088) - https://sketch.com -->
    <title>illustration/no message</title>
    <desc>Created with Sketch.</desc>
    <defs>
        <path d="M110.543,0.134 C95.265,0.157 34.049,2.718 35.711,13.296 L35.711,13.296 C36.77,20.041 46.522,18.939 46.179,25.762 L46.179,25.762 C45.868,31.934 36.286,30.965 32.195,31.818 L32.195,31.818 C25.225,33.27 17.902,40.639 26.415,45.04 L26.415,45.04 C30.73,47.271 35.82,49.257 33.574,54.923 L33.574,54.923 C31.501,60.148 22.811,61.418 18.027,62.822 L18.027,62.822 C15.51,63.561 12.482,63.161 11.013,65.792 L11.013,65.792 C9.498,68.507 11.128,71.572 13.643,72.979 L13.643,72.979 C16.554,74.607 22.889,74.624 24.015,78.427 L24.015,78.427 C24.91,81.457 21.985,84.182 19.596,85.023 L19.596,85.023 C14.574,86.792 6.579,84.309 3.959,90.574 L3.959,90.574 C0.453,98.958 11.846,98.424 13.387,104.732 L13.387,104.732 C14.728,110.236 8.298,111.654 4.52,113.143 L4.52,113.143 C-1.616,115.56 -1.541,123.296 4.968,125.361 L4.968,125.361 C7.634,126.208 10.226,125.353 12.848,126.789 L12.848,126.789 C16.301,128.681 17.296,131.638 14.164,134.468 L14.164,134.468 C13.046,135.48 11.282,135.171 10.4,136.387 L10.4,136.387 C7.889,139.846 11.546,144.853 15.126,143.793 L15.126,143.793 C20.051,142.333 24.872,140.387 30.096,140.468 L30.096,140.468 C32.09,140.5 34.082,140.566 36.075,140.617 L36.075,140.617 C41.223,140.747 46.372,140.882 51.52,141.016 L51.52,141.016 C65.019,141.371 78.518,141.725 92.017,142.061 L92.017,142.061 C107.026,142.435 122.037,142.79 137.048,143.096 L137.048,143.096 C150.26,143.365 163.473,143.609 176.687,143.722 L176.687,143.722 C183.748,143.782 190.811,143.941 197.87,143.685 L197.87,143.685 C204.046,143.461 206.822,142.066 207.164,135.262 L207.164,135.262 C207.264,133.264 206.897,131.328 207.242,129.327 L207.242,129.327 C207.626,127.105 209.419,124.839 208.777,122.609 L208.777,122.609 C208.501,121.649 207.954,120.771 207.313,119.93 L207.313,119.93 C204.934,116.81 201.253,114.206 205.249,109.894 L205.249,109.894 C207.44,107.529 211.378,107.23 212.772,104.075 L212.772,104.075 C215.609,97.643 209.682,96.244 205.026,94.38 L205.026,94.38 C202.116,93.215 197.54,92.273 199.542,88.298 L199.542,88.298 C201.064,85.274 206.96,85.337 207.487,81.558 L207.487,81.558 C208.381,75.154 196.536,75.837 192.766,74.484 L192.766,74.484 C190.573,73.697 187.448,72.167 187.249,69.49 L187.249,69.49 C186.956,65.597 191.14,65.765 193.309,63.932 L193.309,63.932 C195.415,62.152 196.239,60.248 195.522,57.432 L195.522,57.432 C194.167,52.096 187.322,52.192 182.794,50.787 L182.794,50.787 C180.996,50.23 177.562,49.145 177.086,46.959 L177.086,46.959 C176.092,42.392 187.914,42.703 185.245,35.321 L185.245,35.321 C183.282,29.893 176.909,30.694 172.998,27.704 L172.998,27.704 C171.034,26.204 169.293,23.954 169.812,21.223 L169.812,21.223 C170.418,18.038 173.876,16.967 176.081,15.061 L176.081,15.061 C181.19,10.648 175.609,9.549 171.616,7.618 L171.616,7.618 C160.169,2.085 120.313,0.14 110.684,0.134 L110.684,0.134 L110.543,0.134 Z" id="path-1"></path>
        <polygon id="path-3" points="0.658059662 0.707 14.3431 0.707 14.3431 12 0.658059662 12"></polygon>
        <path d="M4.49,2.939 C2.726,3.709 0.866,5.28 0.866,5.28 L0.866,5.28 C2.538,7.759 10.521,14.336 14.971,14.172 L14.971,14.172 C18.886,14.027 27.434,5.416 27.509,5.087 L27.509,5.087 C27.509,5.087 24.61,3.321 23.553,2.919 L23.553,2.919 C19.195,1.261 16.251,0.484 13.551,0.484 L13.551,0.484 C10.714,0.484 8.146,1.342 4.49,2.939" id="path-5"></path>
        <path d="M1.406,2.013 L98.922,0.618837411 C100.66,0.594 100.158,3.456 98.033,6.465 L68.548,48.192 L33.145,49.542 L2.188,7.756" id="path-7"></path>
        <linearGradient x1="49.8146881%" y1="36.9438397%" x2="52.131491%" y2="61.9404673%" id="linearGradient-9">
            <stop stop-color="#FFFFFF" offset="0%"></stop>
            <stop stop-color="#FFFFFF" offset="100%"></stop>
        </linearGradient>
        <path d="M0.441,1.382 C0.441,2.174 1.183,2.539 2.098,2.539 L2.098,2.539 C3.013,2.539 3.755,2.174 3.755,1.382 L3.755,1.382 C3.755,0.589 3.013,0.195 2.098,0.195 L2.098,0.195 C1.183,0.195 0.441,0.589 0.441,1.382" id="path-10"></path>
        <linearGradient x1="0.0101870851%" y1="49.9850512%" x2="100.004514%" y2="49.9850512%" id="linearGradient-12">
            <stop stop-color="#F9C310" offset="0%"></stop>
            <stop stop-color="#FBBF10" offset="100%"></stop>
        </linearGradient>
    </defs>
    <g id="Page-1" stroke="none" stroke-width="1" fill="none" fill-rule="evenodd">
        <g id="looa_home_type_2" transform="translate(-918.000000, -456.000000)">
            <g id="illustration/no-message" transform="translate(918.000000, 455.000000)">
                <g id="Group-3" transform="translate(0.000000, 0.866000)">
                    <mask id="mask-2" fill="white">
                        <use xlink:href="#path-1"></use>
                    </mask>
                    <g id="Clip-2"></g>
                    <path d="M110.543,0.134 C95.265,0.157 34.049,2.718 35.711,13.296 L35.711,13.296 C36.77,20.041 46.522,18.939 46.179,25.762 L46.179,25.762 C45.868,31.934 36.286,30.965 32.195,31.818 L32.195,31.818 C25.225,33.27 17.902,40.639 26.415,45.04 L26.415,45.04 C30.73,47.271 35.82,49.257 33.574,54.923 L33.574,54.923 C31.501,60.148 22.811,61.418 18.027,62.822 L18.027,62.822 C15.51,63.561 12.482,63.161 11.013,65.792 L11.013,65.792 C9.498,68.507 11.128,71.572 13.643,72.979 L13.643,72.979 C16.554,74.607 22.889,74.624 24.015,78.427 L24.015,78.427 C24.91,81.457 21.985,84.182 19.596,85.023 L19.596,85.023 C14.574,86.792 6.579,84.309 3.959,90.574 L3.959,90.574 C0.453,98.958 11.846,98.424 13.387,104.732 L13.387,104.732 C14.728,110.236 8.298,111.654 4.52,113.143 L4.52,113.143 C-1.616,115.56 -1.541,123.296 4.968,125.361 L4.968,125.361 C7.634,126.208 10.226,125.353 12.848,126.789 L12.848,126.789 C16.301,128.681 17.296,131.638 14.164,134.468 L14.164,134.468 C13.046,135.48 11.282,135.171 10.4,136.387 L10.4,136.387 C7.889,139.846 11.546,144.853 15.126,143.793 L15.126,143.793 C20.051,142.333 24.872,140.387 30.096,140.468 L30.096,140.468 C32.09,140.5 34.082,140.566 36.075,140.617 L36.075,140.617 C41.223,140.747 46.372,140.882 51.52,141.016 L51.52,141.016 C65.019,141.371 78.518,141.725 92.017,142.061 L92.017,142.061 C107.026,142.435 122.037,142.79 137.048,143.096 L137.048,143.096 C150.26,143.365 163.473,143.609 176.687,143.722 L176.687,143.722 C183.748,143.782 190.811,143.941 197.87,143.685 L197.87,143.685 C204.046,143.461 206.822,142.066 207.164,135.262 L207.164,135.262 C207.264,133.264 206.897,131.328 207.242,129.327 L207.242,129.327 C207.626,127.105 209.419,124.839 208.777,122.609 L208.777,122.609 C208.501,121.649 207.954,120.771 207.313,119.93 L207.313,119.93 C204.934,116.81 201.253,114.206 205.249,109.894 L205.249,109.894 C207.44,107.529 211.378,107.23 212.772,104.075 L212.772,104.075 C215.609,97.643 209.682,96.244 205.026,94.38 L205.026,94.38 C202.116,93.215 197.54,92.273 199.542,88.298 L199.542,88.298 C201.064,85.274 206.96,85.337 207.487,81.558 L207.487,81.558 C208.381,75.154 196.536,75.837 192.766,74.484 L192.766,74.484 C190.573,73.697 187.448,72.167 187.249,69.49 L187.249,69.49 C186.956,65.597 191.14,65.765 193.309,63.932 L193.309,63.932 C195.415,62.152 196.239,60.248 195.522,57.432 L195.522,57.432 C194.167,52.096 187.322,52.192 182.794,50.787 L182.794,50.787 C180.996,50.23 177.562,49.145 177.086,46.959 L177.086,46.959 C176.092,42.392 187.914,42.703 185.245,35.321 L185.245,35.321 C183.282,29.893 176.909,30.694 172.998,27.704 L172.998,27.704 C171.034,26.204 169.293,23.954 169.812,21.223 L169.812,21.223 C170.418,18.038 173.876,16.967 176.081,15.061 L176.081,15.061 C181.19,10.648 175.609,9.549 171.616,7.618 L171.616,7.618 C160.169,2.085 120.313,0.14 110.684,0.134 L110.684,0.134 L110.543,0.134 Z" id="Fill-1" fill="#D8D8D8" mask="url(#mask-2)"></path>
                </g>
                <g id="Group-21" transform="translate(53.000000, 85.866000)">
                    <path d="M34.9895,45.4024 L8.0275,48.7144 C8.0275,48.7144 44.5255,72.2864 52.0495,72.2864 C60.3615,72.2864 87.6465,59.0564 87.6465,59.0564 L65.7985,44.9384 L34.9895,45.4024 Z" id="Fill-4" fill="#004381"></path>
                    <path d="M64.4269676,24.1954 L76.964,42.3114 C76.964,42.3114 74.39,46.6444 74.246,47.7044 C73.243,55.1104 77.692,56.1324 80.003,55.1814 C84.023,53.5274 90.209,43.3454 89.531,41.5594 C85.085,29.8564 80.723,18.7264 75.576,7.6424 C74.789,5.9464 73.324,1.7954 72.24,2.8904 C69.614,5.5454 64.412,28.4824 64.4269676,24.1954" id="Fill-6" fill="#3DBCFF"></path>
                    <path d="M41.3714451,23.6734 L27.1004,38.1044 C27.1004,38.1044 29.8234,41.8774 28.6174,46.0824 C28.3414,47.0454 26.0334,50.0384 23.3654,50.2434 C18.8934,50.5864 12.4454,42.7784 13.6124,37.1384 C16.1424,24.9134 25.0004,16.8364 29.9274,5.6594 C31.0314,3.1534 33.4544,-0.0726 34.4134,0.8224 C37.1464,3.3744 41.3874,27.9604 41.3714451,23.6734" id="Fill-8" fill="#3DBCFF"></path>
                    <path d="M1.1321,56.7838 L0.6501,64.2128 C0.6501,64.2128 14.6281,73.9388 21.4061,76.6588 C24.0451,77.7168 46.3011,80.6798 46.3011,80.6798 L48.4681,71.8238 L1.1321,56.7838 Z" id="Fill-10" fill="#004381"></path>
                    <path d="M49.8225,69.4249 L74.3885,76.4539 L74.2935,84.5879 C74.2935,84.5879 62.8615,84.1129 59.4075,83.7889 C57.2115,83.5829 46.8805,82.0019 46.8805,82.0019 L49.8225,69.4249 Z" id="Fill-12" fill="#FFFFFF"></path>
                    <path d="M50.5325,69.9332 L30.9925,77.2362 L31.8155,84.6322 C31.8155,84.6322 41.1635,83.7772 43.9715,83.3542 C45.7585,83.0862 54.1005,81.2662 54.1005,81.2662 L50.5325,69.9332 Z" id="Fill-14" fill="#FFFFFF"></path>
                    <path d="M67.5569,75.9083 C67.5569,75.9083 72.9749,76.2743 75.5749,75.5993 C76.9589,75.2403 79.6759,73.5843 80.9419,73.6513 C84.1969,73.8243 86.4269,79.4563 86.7439,81.3933 C86.9779,82.8303 84.4159,85.1833 82.9119,85.1403 C75.8729,84.9393 67.6139,84.4163 67.6139,84.4163 L68.1989,82.5333 C68.5419,81.4283 68.5819,80.2543 68.3169,79.1283 L67.5569,75.9083 Z" id="Fill-16" fill="#1A4789"></path>
                    <g id="Group-20" transform="translate(21.000000, 74.000000)">
                        <mask id="mask-4" fill="white">
                            <use xlink:href="#path-3"></use>
                        </mask>
                        <g id="Clip-19"></g>
                        <path d="M2.2151,11.756 C2.8621,12.037 4.6881,12.058 5.3811,11.908 C7.7601,11.394 14.3431,10.355 14.3431,10.355 C12.3231,9.059 11.3431,6.692 11.8771,4.407 L12.3301,2.47 L7.8501,0.707 C7.8501,0.707 4.1231,1.937 2.5901,4.339 C-0.5649,9.287 0.7661,11.127 2.2151,11.756" id="Fill-18" fill="#1A4789" mask="url(#mask-4)"></path>
                    </g>
                </g>
                <g id="Group-24" transform="translate(92.000000, 80.866000)">
                    <mask id="mask-6" fill="white">
                        <use xlink:href="#path-5"></use>
                    </mask>
                    <g id="Clip-23"></g>
                    <path d="M4.49,2.939 C2.726,3.709 0.866,5.28 0.866,5.28 L0.866,5.28 C2.538,7.759 10.521,14.336 14.971,14.172 L14.971,14.172 C18.886,14.027 27.434,5.416 27.509,5.087 L27.509,5.087 C27.509,5.087 24.61,3.321 23.553,2.919 L23.553,2.919 C19.195,1.261 16.251,0.484 13.551,0.484 L13.551,0.484 C10.714,0.484 8.146,1.342 4.49,2.939" id="Fill-22" mask="url(#mask-6)"></path>
                </g>
                <g id="Group-62" transform="translate(50.000000, 52.866000)">
                    <path d="M60.0296,16.2809 L51.6866,19.6259 C51.4396,19.6229 50.8226,24.3999 50.8206,24.6389 L50.4746,32.8419 C50.4506,35.4919 52.9246,37.6039 55.6666,37.6280894 C58.4086,37.6509 61.0366,35.5759 61.0606,32.9259 L60.4736,16.7179 C60.4756,16.4789 60.2776,16.2829 60.0296,16.2809" id="Fill-25" fill="#D0D6E2"></path>
                    <path d="M35.5462,35.4684 C36.9542,33.0714 49.1332,29.8604 49.1332,29.8604 L55.7072,36.7504 L65.1382,30.0824 C65.1382,30.0824 74.4412,33.6474 76.3932,37.0604 C78.0912,40.0304 76.5252,53.6734 74.9922,63.4354 C73.2782,74.3474 73.4972,81.7704 73.1022,82.3644 C72.0252,83.9824 69.0952,84.5074 67.2102,84.9014 C61.7952,86.0334 37.2202,86.6744 36.1732,80.6744 C35.3832,76.1424 36.4512,65.7844 35.8532,56.6774 C35.5822,52.5594 34.2252,37.7194 35.5462,35.4684" id="Fill-27" fill="#3DBCFF"></path>
                    <path d="M55.6565,36.7091 L58.2475,41.6341 C61.9825,38.3811 69.6825,31.6921 69.6825,31.6921 L63.9065,28.9801 L55.6565,36.7091 Z" id="Fill-29" fill="#63D4FF"></path>
                    <path d="M55.7327,36.6866 L52.9777,41.6116 C49.2437,38.3586 44.7467,30.9256 44.7467,30.9256 L49.1467,29.3566 L55.7327,36.6866 Z" id="Fill-31" fill="#63D4FF"></path>
                    <path d="M66.3997,28.2213 C70.9627,43.4103 63.3987,55.2103 63.3987,55.2103 L56.2327,55.8353 C56.2327,55.8353 62.1817,42.8253 61.1887,30.6983 C61.1557,30.2883 61.0707,28.5533 61.1577,28.1713 C61.8127,25.2793 62.8777,22.7183 64.3567,24.4053 C64.7107,24.8083 66.1447,27.3753 66.3997,28.2213" id="Fill-33" fill="#497AD2"></path>
                    <path d="M65.677,4.4884 C69.285,8.1874 70.237,16.6254 66.793,20.2904 C63.815,23.4604 52.449,23.8174 51.515,23.6824 C41.603,22.2504 42.76,12.2774 44.95,8.2524 C48.632,1.4844 58.943,-2.4136 65.677,4.4884" id="Fill-35" fill="#497AD2"></path>
                    <path d="M64.1243,20.1329 C64.0683,18.9109 65.0373,17.8769 66.2893,17.8229 C67.5413,17.7699 68.6013,18.7169 68.6573,19.9389 C68.7133,21.1599 67.7433,22.1949 66.4923,22.2479 C65.2403,22.3009 64.1813,21.3549 64.1243,20.1329" id="Fill-37" fill="#FFFFFF"></path>
                    <path d="M47.8557,20.0357 C47.8557,21.2587 46.8397,22.2497 45.5867,22.2497 C44.3347,22.2497 43.3187,21.2587 43.3187,20.0357 C43.3187,18.8127 44.3347,17.8217 45.5867,17.8217 C46.8397,17.8217 47.8557,18.8127 47.8557,20.0357" id="Fill-39" fill="#FFFFFF"></path>
                    <path d="M65.9456,20.0357 C65.9456,27.3347 61.5316,33.2527 56.0876,33.2527 C50.6416,33.2527 46.2286,27.3347 46.2286,20.0357 C46.2286,12.7357 50.6416,6.8187 56.0876,6.8187 C61.5316,6.8187 65.9456,12.7357 65.9456,20.0357" id="Fill-41" fill="#FFFFFF"></path>
                    <path d="M61.637,7.6046 C68.103,10.2126 67.718,16.9276 67.345,18.5716 C67.005,20.0726 66.343,20.9776 65.942,20.9456 C61.388,20.5796 50.062,14.3126 50.062,14.3126 C50.062,14.3126 43.854,18.8246 48.266,35.5216 C48.266,35.5216 44.615,29.3456 44.428,20.8536 C44.192,10.1056 52.254,3.8206 61.637,7.6046" id="Fill-43" fill="#497AD2"></path>
                    <path d="M65.512,80.5162 C65.592,80.4642 67.381,79.0582 68.678,79.0492 C71.271,79.0302 73.935,80.9572 76.606,80.2412 C77.498,80.0012 79.004,80.1522 79.841,80.5342 L81.577,81.3272 C82.921,81.9402 83.362,83.6072 82.449,84.7412 C81.508,85.9102 80.182,87.0812 78.642,87.0952 C77.076,87.1092 74.912,86.0612 73.347,86.0432 C72.431,86.0332 70.955,87.3762 70.091,87.6692 C69.801,87.7672 69.179,87.9862 68.885,87.9012 C68.763,87.8662 68.504,87.5732 68.504,87.5732 C68.504,87.5732 67.551,88.2232 67.176,88.2682 C66.825,88.3102 65.806,87.9292 65.806,87.9292 L69.624,83.6112 L66.936,84.8872 C66.936,84.8872 65.49,86.1872 64.878,86.3512 C64.175,86.5402 63.782,85.9812 63.782,85.9812 L67.84,81.2592 C67.84,81.2592 64.688,82.7542 63.69,82.5522 C63.246,82.4622 62.626,81.9642 62.626,81.9642 L65.512,80.5162 Z" id="Fill-45" fill="#FFFFFF"></path>
                    <path d="M38.7854,71.2086 C38.6884,71.2026 36.4124,70.8496 35.2854,71.4686 C33.0294,72.7056 31.7204,75.6616 29.0364,76.3326 C28.1394,76.5576 26.9134,77.4156 26.3864,78.1506 L25.2934,79.6766 C24.4464,80.8576 24.9274,82.5136 26.3054,83.0546 C27.7234,83.6116 29.4784,83.9856 30.8194,83.2526 C32.1814,82.5086 33.5144,80.5546 34.8604,79.7826 C35.6484,79.3306 37.6214,79.7816 38.5204,79.6166 C38.8234,79.5616 39.4734,79.4496 39.6854,79.2336 C39.7734,79.1446 39.8464,78.7656 39.8464,78.7656 C39.8464,78.7656 41.0074,78.8686 41.3544,78.7266 C41.6814,78.5926 42.3664,77.7696 42.3664,77.7696 L36.8264,75.8756 L39.8134,75.6826 C39.8134,75.6826 41.7394,76.1086 42.3534,75.9556 C43.0594,75.7786 43.1114,75.1046 43.1114,75.1046 L37.1534,72.9766 C37.1534,72.9766 40.6574,72.7486 41.4174,72.0906 C41.7544,71.7986 42.0334,71.0676 42.0334,71.0676 L38.7854,71.2086 Z" id="Fill-47" fill="#FFFFFF"></path>
                    <g id="Group-51" transform="translate(5.000000, 28.000000)">
                        <mask id="mask-8" fill="white">
                            <use xlink:href="#path-7"></use>
                        </mask>
                        <g id="Clip-50"></g>
                        <path d="M1.406,2.013 L98.922,0.618837411 C100.66,0.594 100.158,3.456 98.033,6.465 L68.548,48.192 L33.145,49.542 L2.188,7.756 C-0.039,4.751 -0.473,2.04 1.406,2.013" id="Fill-49" fill-opacity="0.4" fill="url(#linearGradient-9)" mask="url(#mask-8)"></path>
                    </g>
                    <path d="M53.5804,51.9234 L59.4274,51.7664 C59.4274,51.7664 59.7724,52.7244 59.9904,53.4014 C60.5844,55.2424 61.8104,56.2834 64.1874,56.2554 L79.8054,56.3244 C82.1344,56.2964 84.7014,54.7934 85.6004,52.8494 L93.1324,39.3394 C94.6854,36.1054 93.3684,33.2614 90.0444,33.2693832 L65.5704,33.3204 C62.1654,33.3284 59.4014,36.2244 59.4064,39.5004 L59.4144,43.8834 L53.5804,51.9234 Z" id="Fill-52" fill="#DCFAFB"></path>
                    <path d="M60.4544,67.5089 L55.8854,67.5969 L55.8624,68.3659 C55.8254,69.6559 54.2634,70.6999 52.3704,70.7629 L39.5044,71.2339 C37.6084,71.2969 35.6354,70.3719 35.0664,69.1019 L30.1934,60.7889 C29.2884,58.8639 30.5704,57.1289 33.1174,57.0469 L51.6154,56.4499 C54.1534,56.3679 56.1624,57.9929 56.1054,59.9449 L56.0284,62.6149 L60.4544,67.5089 Z" id="Fill-54" fill="#DCFAFB"></path>
                    <path d="M32.9983,66.0948 L78.0863,67.3168 C78.9503,67.3408 79.5943,68.0158 79.4563,68.7548 L74.7143,94.3588 L31.5003,92.6268 L31.5193,67.3348 C31.5203,66.6348 32.1893,66.0728 32.9983,66.0948" id="Fill-56" fill="#FFFFFF"></path>
                    <path d="M0.9163,88.1187 C0.0593,90.4757 1.5223,96.0377 3.3123,97.8437 C7.6833,102.2567 26.1153,108.4017 26.1153,108.4017 L57.8303,117.6827 L63.4503,108.0487 L22.4753,84.6917 C22.4753,84.6917 13.5553,80.7057 10.4013,80.9867 C7.4103,81.2537 1.9123,85.3787 0.9163,88.1187" id="Fill-58" fill="#497AD2"></path>
                    <path d="M51.4827,106.1427 C51.4827,106.1427 77.8227,91.7217 90.5057,83.5427 C93.4507,81.6447 102.2267,84.1047 104.2187,86.9317 C106.0447,89.5237 104.6297,96.9267 102.6057,99.3767 C95.8297,107.5817 58.1077,112.3687 58.1077,112.3687 L51.4827,106.1427 Z" id="Fill-60" fill="#497AD2"></path>
                </g>
                <g id="Group-65" transform="translate(103.000000, 126.866000)">
                    <mask id="mask-11" fill="white">
                        <use xlink:href="#path-10"></use>
                    </mask>
                    <g id="Clip-64"></g>
                    <path d="M0.441,1.382 C0.441,2.174 1.183,2.539 2.098,2.539 L2.098,2.539 C3.013,2.539 3.755,2.174 3.755,1.382 L3.755,1.382 C3.755,0.589 3.013,0.195 2.098,0.195 L2.098,0.195 C1.183,0.195 0.441,0.589 0.441,1.382" id="Fill-63" fill="url(#linearGradient-12)" mask="url(#mask-11)"></path>
                </g>
                <g id="Group-72" transform="translate(102.000000, 17.866000)" fill="#151C28">
                    <path d="M13.5735,4.0924 C8.1135,4.0924 3.6725,8.4184 3.6725,13.7344 C3.6725,18.6314 7.5185,22.2324 11.1385,23.1334 C11.8665,23.3144 12.3765,23.9674 12.3765,24.7164 L12.3765,27.4114 L16.0755,24.1894 C16.3725,23.9304 16.7535,23.7884 17.1465,23.7884 L20.4475,23.7884 C25.8245,23.7884 30.1995,19.3704 30.1995,13.9404 C30.1995,8.5104 25.8245,4.0924 20.4475,4.0924 L13.5735,4.0924 Z M10.7445,32.6254 C10.5155,32.6254 10.2855,32.5774 10.0695,32.4794 C9.4875,32.2144 9.1135,31.6344 9.1135,30.9944 L9.1135,25.9204 C4.0725,24.0844 0.4095,19.0594 0.4095,13.7344 C0.4095,6.6194 6.3145,0.8304 13.5735,0.8304 L20.4475,0.8304 C27.6235,0.8304 33.4625,6.7114 33.4625,13.9404 C33.4625,21.1694 27.6235,27.0504 20.4475,27.0504 L17.7575,27.0504 L11.8165,32.2244 C11.5125,32.4884 11.1315,32.6254 10.7445,32.6254 L10.7445,32.6254 Z" id="Fill-66"></path>
                    <path d="M16.9358,20.0934 C16.0358,20.0934 15.3048,19.3634 15.3048,18.4624 L15.3048,14.1134 C15.3048,13.2124 16.0358,12.4814 16.9358,12.4814 C17.8368,12.4814 18.5668,13.2124 18.5668,14.1134 L18.5668,18.4624 C18.5668,19.3634 17.8368,20.0934 16.9358,20.0934" id="Fill-68"></path>
                    <path d="M16.9358,11.7643 C15.6978,11.7643 14.6908,10.7613 14.6908,9.5283 C14.6908,8.2953 15.6978,7.2933 16.9358,7.2933 C18.1728,7.2933 19.1808,8.2953 19.1808,9.5283 C19.1808,10.7613 18.1728,11.7643 16.9358,11.7643" id="Fill-70"></path>
                </g>
            </g>
        </g>
    </g>
</svg>